<svg width="49" height="45" viewBox="0 0 49 45" fill="none" xmlns="http://www.w3.org/2000/svg">
<path d="M41.4634 28.9424V16.9424C43.0547 16.9424 44.5808 17.5745 45.706 18.6997C46.8312 19.825 47.4634 21.3511 47.4634 22.9424C47.4634 24.5337 46.8312 26.0598 45.706 27.185C44.5808 28.3102 43.0547 28.9424 41.4634 28.9424Z" fill="#BFBFBF"/>
<path d="M15.4634 15.9424H11.4634V29.9424H15.4634V15.9424Z" fill="#BFBFBF"/>
<path d="M19.4634 30.9424C19.1982 30.9424 18.9438 30.837 18.7563 30.6495C18.5687 30.462 18.4634 30.2076 18.4634 29.9424V15.9424C18.4634 15.6772 18.5687 15.4228 18.7563 15.2353C18.9438 15.0477 19.1982 14.9424 19.4634 14.9424C19.7286 14.9424 19.983 15.0477 20.1705 15.2353C20.358 15.4228 20.4634 15.6772 20.4634 15.9424V29.9424C20.4634 30.2076 20.358 30.462 20.1705 30.6495C19.983 30.837 19.7286 30.9424 19.4634 30.9424Z" fill="#BFBFBF"/>
<path d="M19.4634 30.9424C19.1982 30.9424 18.9438 30.837 18.7563 30.6495C18.5687 30.462 18.4634 30.2076 18.4634 29.9424V15.9424C18.4634 15.6772 18.5687 15.4228 18.7563 15.2353C18.9438 15.0477 19.1982 14.9424 19.4634 14.9424C19.7286 14.9424 19.983 15.0477 20.1705 15.2353C20.358 15.4228 20.4634 15.6772 20.4634 15.9424V29.9424C20.4634 30.2076 20.358 30.462 20.1705 30.6495C19.983 30.837 19.7286 30.9424 19.4634 30.9424Z" fill="#BFBFBF"/>
<path d="M42.4634 16.0224V5.94245C42.4634 5.75128 42.4086 5.56412 42.3055 5.40313C42.2024 5.24215 42.0554 5.11408 41.8817 5.0341C41.7081 4.95413 41.5152 4.92559 41.3258 4.95189C41.1365 4.97818 40.9586 5.05819 40.8134 5.18245C39.5768 6.24695 38.2742 7.23225 36.9134 8.13245C36.7193 8.28875 36.5906 8.51186 36.5525 8.75808C36.5143 9.0043 36.5695 9.2559 36.7071 9.4636C36.8447 9.6713 37.0549 9.82014 37.2966 9.88097C37.5382 9.94179 37.7938 9.91023 38.0134 9.79245C38.8534 9.24245 39.6734 8.66245 40.4634 8.04245V37.8324C36.1028 34.4806 31.1247 32.0204 25.8134 30.5924C18.9134 28.7524 19.8134 28.9725 19.5934 28.9725C19.3734 28.9725 19.9034 28.9725 16.4634 28.9725V16.9424H19.4634C19.6734 16.9424 19.1534 17.0624 26.1434 15.2024C26.2708 15.1683 26.3902 15.1094 26.4948 15.0291C26.5994 14.9488 26.6872 14.8487 26.7531 14.7345C26.819 14.6203 26.8618 14.4942 26.879 14.3634C26.8962 14.2327 26.8875 14.0998 26.8534 13.9724C26.8192 13.8451 26.7603 13.7257 26.68 13.621C26.5998 13.5164 26.4996 13.4286 26.3854 13.3627C26.2712 13.2968 26.1451 13.254 26.0144 13.2368C25.8836 13.2196 25.7508 13.2283 25.6234 13.2624L19.3334 14.9424H8.46338C6.34165 14.9424 4.30682 15.7853 2.80652 17.2856C1.30623 18.7859 0.463379 20.8207 0.463379 22.9424C0.463379 25.0642 1.30623 27.099 2.80652 28.5993C4.30682 30.0996 6.34165 30.9424 8.46338 30.9424H9.46338V43.9424C9.46338 44.2077 9.56874 44.462 9.75627 44.6496C9.94381 44.8371 10.1982 44.9424 10.4634 44.9424H18.4634C18.7286 44.9424 18.983 44.8371 19.1705 44.6496C19.358 44.462 19.4634 44.2077 19.4634 43.9424V40.4424C19.4634 39.8824 19.2234 39.7824 17.4634 38.1024V34.9424H20.4634C20.648 34.9419 20.829 34.8902 20.986 34.7931C21.1431 34.696 21.2703 34.5574 21.3534 34.3925L22.6434 31.8225C26.4193 32.6594 30.0724 33.9768 33.5134 35.7424C36.1281 37.1275 38.5771 38.8049 40.8134 40.7424C40.9612 40.8692 41.1428 40.95 41.336 40.975C41.5291 40.9999 41.7253 40.968 41.9005 40.883C42.0757 40.7981 42.2223 40.6638 42.3223 40.4967C42.4223 40.3297 42.4713 40.137 42.4634 39.9424V29.8624C44.1179 29.6101 45.6273 28.7734 46.7179 27.5039C47.8085 26.2343 48.4081 24.6161 48.4081 22.9424C48.4081 21.2688 47.8085 19.6505 46.7179 18.381C45.6273 17.1115 44.1179 16.2748 42.4634 16.0224ZM12.4634 16.9424H14.4634V28.9424H12.4634V16.9424ZM10.4634 28.9424H8.46338C6.87208 28.9424 5.34596 28.3103 4.22074 27.1851C3.09552 26.0599 2.46338 24.5337 2.46338 22.9424C2.46338 21.3512 3.09552 19.825 4.22074 18.6998C5.34596 17.5746 6.87208 16.9424 8.46338 16.9424H10.4634V28.9424ZM17.4634 42.9424H11.4634V30.9424H15.4634V38.5224C15.4634 39.0724 15.6434 39.1324 17.4634 40.8724V42.9424ZM19.8434 32.9424H17.4634V30.9424C18.5435 30.8033 19.6412 30.9268 20.6634 31.3025L19.8434 32.9424ZM42.4634 27.8424V18.0424C43.5937 18.272 44.6099 18.8852 45.3398 19.7782C46.0697 20.6712 46.4684 21.7891 46.4684 22.9424C46.4684 24.0958 46.0697 25.2137 45.3398 26.1067C44.6099 26.9997 43.5937 27.6129 42.4634 27.8424Z" fill="#424242"/>
<path d="M38.4634 8.9425C38.4642 7.58935 38.1218 6.25809 37.4682 5.07327C36.8146 3.88845 35.8711 2.88877 34.7261 2.16776C33.581 1.44675 32.2718 1.02797 30.9209 0.950592C29.5699 0.873214 28.2214 1.13977 27.0015 1.72532C25.7816 2.31087 24.7302 3.19628 23.9456 4.29872C23.161 5.40117 22.6688 6.68462 22.5151 8.02902C22.3615 9.37341 22.5513 10.7348 23.0669 11.9859C23.5826 13.2369 24.4071 14.3368 25.4634 15.1825V21.9425C25.4639 22.113 25.508 22.2805 25.5914 22.4291C25.6749 22.5777 25.795 22.7026 25.9403 22.7917C26.0855 22.8809 26.2512 22.9315 26.4215 22.9386C26.5918 22.9457 26.7612 22.9092 26.9134 22.8325L30.4634 21.0625L34.0134 22.8325C34.1656 22.9092 34.3349 22.9457 34.5052 22.9386C34.6756 22.9315 34.8412 22.8809 34.9865 22.7917C35.1318 22.7026 35.2519 22.5777 35.3353 22.4291C35.4188 22.2805 35.4629 22.113 35.4634 21.9425V15.1825C36.3989 14.4335 37.1541 13.4839 37.6734 12.4039C38.1927 11.3238 38.4626 10.1409 38.4634 8.9425ZM29.0434 7.2525L30.4634 5.0025L31.8834 7.2525L34.4634 7.9425L32.7634 9.9425L32.9334 12.5925L30.4634 11.5925L27.9934 12.5925L28.1634 9.9425L26.4634 7.9425L29.0434 7.2525ZM27.4634 20.3225V16.3225C28.1042 16.5832 28.7767 16.7581 29.4634 16.8425V19.2925L27.4634 20.3225ZM33.4634 20.3225L31.4634 19.3225V16.8725C32.15 16.7881 32.8225 16.6132 33.4634 16.3525V20.3225Z" fill="#FC6459"/>
</svg>
