<svg width="71" height="49" viewBox="0 0 71 49" fill="none" xmlns="http://www.w3.org/2000/svg">
<path d="M60.688 1.3125H9.81299C8.53583 1.3125 7.50049 2.34784 7.50049 3.625V40.625C7.50049 41.9022 8.53583 42.9375 9.81299 42.9375H60.688C61.9652 42.9375 63.0005 41.9022 63.0005 40.625V3.625C63.0005 2.34784 61.9652 1.3125 60.688 1.3125Z" fill="#55ADDF" stroke="black"/>
<path d="M58.3755 5.9375H12.1255V38.3125H58.3755V5.9375Z" fill="#D0DDE6" stroke="black" stroke-linecap="round" stroke-linejoin="round"/>
<path d="M0.565216 42.9375H69.9402C69.9402 45.1344 69.5933 46.4432 67.6277 47.5625H2.87772C0.357091 46.4756 0.565216 44.8962 0.565216 42.9375Z" fill="#CEAB7E" stroke="black" stroke-linecap="round" stroke-linejoin="round"/>
<path d="M38.7655 12.1807C35.898 14.6319 32.4617 15.0391 27.9893 15.2079H21.5929C19.951 15.2079 18.626 15.8507 18.626 17.259V23.156C18.626 25.5124 21.1744 25.5354 22.0947 25.5354H27.8945C30.9562 25.5793 35.9096 26.2361 38.7632 28.6804L38.7655 12.1807Z" fill="#9FCEEA" stroke="black" stroke-linecap="round" stroke-linejoin="round"/>
<path d="M41.751 15.0645C42.959 15.0645 44.1176 15.5517 44.9718 16.4191C45.826 17.2865 46.3059 18.4628 46.3059 19.6895C46.3059 20.9161 45.826 22.0925 44.9718 22.9599C44.1176 23.8272 42.959 24.3145 41.751 24.3145V19.6895V15.0645Z" fill="#D0DDE6" stroke="black" stroke-width="1.00033" stroke-linecap="round" stroke-linejoin="round"/>
<path d="M23.251 25.5449H27.8413L27.876 33.604H23.2995L23.251 25.5449Z" fill="#CEAB7E" stroke="black" stroke-linecap="round" stroke-linejoin="round"/>
<path d="M28.209 15.2754V25.2701" stroke="black" stroke-linecap="round" stroke-linejoin="round"/>
<path d="M41.751 11.8162C41.751 10.9669 40.7156 10.2783 39.4385 10.2783C38.1613 10.2783 37.126 10.9669 37.126 11.8162V29.049C37.126 29.8983 38.1613 30.5867 39.4385 30.5867C40.7156 30.5867 41.751 29.8983 41.751 29.049V11.8162Z" fill="#E6CC9B" stroke="black"/>
<path d="M48.8687 15.2472L50.973 12.2871M49.5717 19.6873H52.157M48.8687 24.1271L50.973 27.0872" stroke="black" stroke-linecap="round" stroke-linejoin="round"/>
</svg>
