<svg width="37" height="37" viewBox="0 0 37 37" fill="none" xmlns="http://www.w3.org/2000/svg">
<path d="M34.6875 2.3125V34.6875H2.3125V2.3125H34.6875ZM35.8438 1.15625H1.15625V35.8438H35.8438V1.15625Z" fill="#6A44FE"/>
<path d="M34.6875 2.3125V34.6875H2.3125V2.3125H34.6875ZM35.8438 1.15625H1.15625V35.8438H35.8438V1.15625Z" fill="#6A44FE"/>
<path d="M26.0861 8.38508H10.9138C10.5803 8.37977 10.2491 8.44155 9.93985 8.56675C9.63066 8.69195 9.34978 8.87802 9.1139 9.1139C8.87802 9.34978 8.69195 9.63066 8.56675 9.93985C8.44155 10.2491 8.37977 10.5803 8.38508 10.9138V26.085C8.38508 27.5118 9.48583 28.6137 10.9138 28.6137H26.085C26.4185 28.6188 26.7496 28.5569 27.0587 28.4317C27.3678 28.3064 27.6487 28.1203 27.8845 27.8845C28.1204 27.6487 28.3064 27.3678 28.4317 27.0587C28.5569 26.7496 28.6188 26.4185 28.6137 26.085V10.9138C28.6191 10.5803 28.5575 10.2491 28.4324 9.93994C28.3074 9.63075 28.1214 9.34986 27.8856 9.11396C27.6498 8.87806 27.369 8.69198 27.0599 8.56677C26.7508 8.44155 26.4196 8.37977 26.0861 8.38508ZM18.515 14.5259C20.7581 14.5259 22.5757 16.288 22.5757 18.4618C22.5757 20.6344 20.7581 22.3977 18.515 22.3977C16.273 22.3977 14.4554 20.6344 14.4554 18.4618C14.4554 16.288 16.2742 14.5259 18.515 14.5259ZM26.0861 25.4536C26.0861 25.8965 25.8965 26.0861 25.4536 26.0861H11.5463C11.1046 26.0861 10.9138 25.8976 10.9138 25.4536V16.6037L12.4898 16.946C12.3168 17.5078 12.2287 18.0924 12.2285 18.6803C12.2285 22.0415 15.0451 24.7703 18.5138 24.7703C21.9861 24.7703 24.7992 22.0427 24.7992 18.6803C24.7992 18.0768 24.7079 17.4952 24.5391 16.946L26.0838 16.6037V25.4536H26.0861ZM26.0861 14.0738C26.0861 14.2416 26.0195 14.4024 25.9009 14.5211C25.7823 14.6397 25.6214 14.7063 25.4536 14.7063H22.9249C22.7572 14.7063 22.5963 14.6397 22.4777 14.5211C22.3591 14.4024 22.2925 14.2416 22.2925 14.0738V11.5463C22.2925 11.1971 22.5757 10.9138 22.9249 10.9138H25.4536C25.8028 10.9138 26.0861 11.1971 26.0861 11.5463V14.0738Z" fill="#6A44FE"/>
</svg>
