<svg width="37" height="37" viewBox="0 0 37 37" fill="none" xmlns="http://www.w3.org/2000/svg">
<path d="M34.6875 2.3125V34.6875H2.3125V2.3125H34.6875ZM35.8438 1.15625H1.15625V35.8438H35.8438V1.15625Z" fill="#6A44FE"/>
<path d="M34.6875 2.3125V34.6875H2.3125V2.3125H34.6875ZM35.8438 1.15625H1.15625V35.8438H35.8438V1.15625Z" fill="#6A44FE"/>
<path d="M27.6019 26.0435V19.3118C27.6019 15.7054 25.6768 14.0266 23.1099 14.0266C21.0379 14.0266 20.1106 15.1666 19.5926 15.9656V14.3029H15.6903C15.7423 15.4048 15.6903 26.0435 15.6903 26.0435H19.5926V19.4864C19.5926 19.136 19.618 18.7857 19.7209 18.5348C20.0031 17.8341 20.6448 17.108 21.7224 17.108C23.1354 17.108 23.6996 18.1844 23.6996 19.7627V26.0446L27.6019 26.0435ZM11.5798 12.7003C12.9407 12.7003 13.7882 11.7985 13.7882 10.6711C13.7628 9.5195 12.9407 8.64307 11.6064 8.64307C10.2721 8.64307 9.39795 9.5195 9.39795 10.6711C9.39795 11.7985 10.2455 12.7003 11.5555 12.7003H11.5798ZM13.5304 26.0435V14.3029H9.62804V26.0435H13.5304Z" fill="#6A44FE"/>
</svg>
