<svg width="61" height="61" viewBox="0 0 61 61" fill="none" xmlns="http://www.w3.org/2000/svg">
<path d="M34.3384 56.9365C47.8003 56.9365 58.7134 46.0235 58.7134 32.5615C58.7134 19.0996 47.8003 8.18652 34.3384 8.18652C20.8764 8.18652 9.96338 19.0996 9.96338 32.5615C9.96338 46.0235 20.8764 56.9365 34.3384 56.9365Z" fill="#F0F0FF"/>
<path d="M33.8695 49.4658V48.4993C33.8685 47.5089 33.4761 46.5591 32.7779 45.8567C32.0798 45.1543 31.1323 44.7563 30.142 44.7493C28.2489 39.8922 26.9355 34.8288 26.2289 29.6639C27.065 29.4809 27.8135 29.0178 28.3505 28.3514C28.8876 27.685 29.1809 26.8552 29.182 25.9993V24.788C29.8741 24.5072 30.4667 24.0265 30.8842 23.4073C31.3017 22.788 31.5251 22.0583 31.5258 21.3115V14.749C31.5247 13.7548 31.1292 12.8016 30.4262 12.0986C29.7232 11.3956 28.77 11.0002 27.7758 10.999H22.9724C17.942 13.6443 13.9944 17.9647 11.8125 23.2127C9.63065 28.4608 9.35179 34.3064 11.0242 39.7384C12.6966 45.1703 16.215 49.8468 20.9708 52.9589C25.7266 56.071 31.4206 57.423 37.0677 56.7808C37.1228 56.5239 37.1506 56.262 37.1508 55.9993V53.1868C37.1496 52.2737 36.8158 51.3923 36.2119 50.7075C35.608 50.0226 34.7753 49.5812 33.8695 49.4658ZM53.7251 17.7921C52.359 15.9998 50.7523 14.4044 48.9504 13.051L48.0445 15.6724L43.5024 19.2865C42.854 19.8031 42.3542 20.4824 42.0539 21.2552L34.5024 33.279L40.868 29.1727L47.1024 25.5962C47.8212 25.182 48.4179 24.5853 48.832 23.8665L51.7242 18.8415L53.7251 17.7921Z" fill="#CACADB"/>
<path d="M34.3384 47.5615C42.6227 47.5615 49.3384 40.8458 49.3384 32.5615C49.3384 24.2773 42.6227 17.5615 34.3384 17.5615C26.0541 17.5615 19.3384 24.2773 19.3384 32.5615C19.3384 40.8458 26.0541 47.5615 34.3384 47.5615Z" fill="#8DC1F3"/>
<path d="M30.142 44.7486C28.249 39.8915 26.9355 34.8281 26.229 29.6632C27.065 29.4802 27.8135 29.0172 28.3506 28.3507C28.8876 27.6843 29.181 26.8545 29.1821 25.9986V24.7874C29.8741 24.5066 30.4667 24.0258 30.8842 23.4066C31.3017 22.7873 31.5251 22.0577 31.5258 21.3108V17.8291C27.909 18.5189 24.6723 20.5152 22.4324 23.4376C20.1926 26.36 19.1061 30.0043 19.3799 33.6761C19.6538 37.3479 21.2689 40.7907 23.9176 43.3485C26.5662 45.9063 30.0632 47.4003 33.7424 47.5459C33.5325 46.7491 33.0663 46.0435 32.4156 45.5379C31.765 45.0324 30.966 44.755 30.142 44.7486ZM47.4821 25.342C46.3247 23.2446 44.6852 21.4523 42.6989 20.1131C42.4313 20.4615 42.2142 20.8458 42.054 21.2549L34.5024 33.2783L40.868 29.172L47.1024 25.5955C47.2349 25.5191 47.3584 25.4303 47.4821 25.342Z" fill="#7EAADA"/>
<path d="M34.3384 42.874C40.0338 42.874 44.6509 38.257 44.6509 32.5615C44.6509 26.8661 40.0338 22.249 34.3384 22.249C28.6429 22.249 24.0259 26.8661 24.0259 32.5615C24.0259 38.257 28.6429 42.874 34.3384 42.874Z" fill="#FFBD5A"/>
<path d="M40.2536 24.1214L34.5024 33.2785L40.8681 29.1723L43.4311 27.7019C42.6652 26.2772 41.5771 25.0512 40.2536 24.1214ZM24.0259 32.5613C24.0269 34.319 24.4771 36.0472 25.3337 37.582C26.1903 39.1168 27.425 40.4072 28.9205 41.3308C27.6731 37.5309 26.7723 33.6258 26.229 29.6635C27.0651 29.4804 27.8136 29.0174 28.3506 28.351C28.8877 27.6845 29.181 26.8547 29.1821 25.9988V24.7876C29.6446 24.5977 30.0646 24.3175 30.4175 23.9635C30.7705 23.6094 31.0494 23.1886 31.2379 22.7256C29.1476 23.3875 27.322 24.6973 26.0255 26.4655C24.7289 28.2338 24.0286 30.3687 24.0259 32.5613Z" fill="#E4AD5D"/>
<path d="M34.3384 38.1865C37.445 38.1865 39.9634 35.6681 39.9634 32.5615C39.9634 29.4549 37.445 26.9365 34.3384 26.9365C31.2318 26.9365 28.7134 29.4549 28.7134 32.5615C28.7134 35.6681 31.2318 38.1865 34.3384 38.1865Z" fill="#EA5A6B"/>
<path d="M37.7535 28.1016L34.5024 33.2782L39.3983 30.12C39.0146 29.3284 38.4514 28.6372 37.7535 28.1016Z" fill="#C8556B"/>
<path d="M34.3384 57.4053C29.4248 57.4053 24.6215 55.9482 20.5359 53.2184C16.4504 50.4885 13.2661 46.6084 11.3858 42.0688C9.50539 37.5292 9.0134 32.534 9.97201 27.7148C10.9306 22.8955 13.2967 18.4688 16.7712 14.9944C20.2457 11.5199 24.6724 9.15375 29.4916 8.19515C34.3108 7.23655 39.3061 7.72854 43.8457 9.6089C48.3853 11.4893 52.2654 14.6736 54.9952 18.7591C57.7251 22.8446 59.1822 27.6479 59.1822 32.5615C59.1747 39.1482 56.5549 45.463 51.8974 50.1205C47.2399 54.778 40.9251 57.3979 34.3384 57.4053ZM34.3384 8.65496C29.6102 8.65496 24.9882 10.057 21.0568 12.6839C17.1254 15.3107 14.0613 19.0444 12.2519 23.4127C10.4425 27.781 9.96906 32.5877 10.8915 37.2251C11.8139 41.8625 14.0908 46.1221 17.4341 49.4655C20.7775 52.8088 25.0372 55.0857 29.6745 56.0081C34.3119 56.9305 39.1186 56.4571 43.4869 54.6477C47.8552 52.8383 51.5889 49.7742 54.2157 45.8428C56.8426 41.9115 58.2447 37.2894 58.2447 32.5612C58.2374 26.2231 55.7164 20.1466 51.2347 15.6649C46.753 11.1832 40.6765 8.66217 34.3384 8.65496ZM34.3384 52.7178C30.3519 52.7178 26.4549 51.5357 23.1402 49.3209C19.8255 47.1061 17.242 43.9581 15.7164 40.275C14.1909 36.5919 13.7917 32.5392 14.5694 28.6292C15.3472 24.7193 17.2669 21.1278 20.0858 18.3089C22.9047 15.49 26.4962 13.5703 30.4061 12.7926C34.316 12.0148 38.3688 12.414 42.0519 13.9396C45.7349 15.4652 48.8829 18.0486 51.0977 21.3633C53.3125 24.678 54.4947 28.575 54.4947 32.5615C54.4886 37.9054 52.363 43.0287 48.5843 46.8075C44.8056 50.5862 39.6823 52.7117 34.3384 52.7178ZM34.3384 13.3425C30.5373 13.3425 26.8215 14.4697 23.661 16.5814C20.5005 18.6932 18.0372 21.6948 16.5826 25.2066C15.128 28.7183 14.7474 32.5826 15.4889 36.3107C16.2305 40.0387 18.0609 43.4632 20.7487 46.151C23.4365 48.8388 26.8609 50.6692 30.589 51.4107C34.3171 52.1523 38.1813 51.7717 41.6931 50.3171C45.2049 48.8625 48.2064 46.3991 50.3182 43.2386C52.43 40.0781 53.5572 36.3624 53.5572 32.5613C53.5514 27.4659 51.5247 22.5809 47.9217 18.9779C44.3188 15.3749 39.4338 13.3483 34.3384 13.3425ZM34.3384 48.0303C31.279 48.0303 28.2882 47.1231 25.7444 45.4233C23.2006 43.7236 21.2179 41.3077 20.0471 38.4812C18.8763 35.6546 18.57 32.5444 19.1669 29.5437C19.7637 26.5431 21.237 23.7868 23.4003 21.6235C25.5637 19.4601 28.3199 17.9869 31.3206 17.39C34.3212 16.7932 37.4315 17.0995 40.258 18.2703C43.0846 19.4411 45.5005 21.4237 47.2002 23.9676C48.8999 26.5114 49.8071 29.5021 49.8071 32.5615C49.8025 36.6627 48.1713 40.5945 45.2713 43.4945C42.3714 46.3944 38.4395 48.0256 34.3384 48.0303ZM34.3384 18.0303C31.4644 18.0303 28.6549 18.8825 26.2653 20.4792C23.8756 22.076 22.0131 24.3454 20.9133 27.0007C19.8134 29.6559 19.5257 32.5777 20.0864 35.3964C20.647 38.2152 22.031 40.8045 24.0632 42.8367C26.0955 44.8689 28.6847 46.2529 31.5035 46.8136C34.3223 47.3743 37.244 47.0865 39.8993 45.9867C42.5545 44.8868 44.824 43.0243 46.4207 40.6347C48.0174 38.245 48.8696 35.4356 48.8696 32.5615C48.8654 28.7089 47.333 25.0153 44.6088 22.291C41.8846 19.5668 38.191 18.0346 34.3384 18.0303ZM34.3384 43.3428C32.2061 43.3428 30.1216 42.7105 28.3487 41.5258C26.5757 40.3412 25.1938 38.6574 24.3778 36.6873C23.5618 34.7173 23.3483 32.5496 23.7643 30.4582C24.1803 28.3669 25.2071 26.4458 26.7149 24.938C28.2227 23.4303 30.1437 22.4034 32.2351 21.9874C34.3264 21.5715 36.4942 21.785 38.4642 22.601C40.4342 23.417 42.118 24.7988 43.3027 26.5718C44.4873 28.3448 45.1196 30.4292 45.1196 32.5615C45.1164 35.4199 43.9795 38.1603 41.9583 40.1815C39.9372 42.2027 37.1968 43.3396 34.3384 43.3428ZM34.3384 22.7178C32.3915 22.7178 30.4883 23.2951 28.8695 24.3768C27.2507 25.4584 25.989 26.9958 25.244 28.7945C24.4989 30.5932 24.304 32.5725 24.6838 34.482C25.0636 36.3915 26.0011 38.1455 27.3778 39.5221C28.7545 40.8988 30.5085 41.8363 32.418 42.2161C34.3275 42.596 36.3067 42.401 38.1054 41.656C39.9041 40.9109 41.4415 39.6492 42.5232 38.0304C43.6048 36.4116 44.1821 34.5085 44.1821 32.5615C44.1792 29.9517 43.1411 27.4497 41.2957 25.6042C39.4503 23.7588 36.9482 22.7208 34.3384 22.7178ZM34.3384 38.6553C33.1332 38.6553 31.955 38.2979 30.9529 37.6283C29.9508 36.9587 29.1697 36.007 28.7085 34.8935C28.2473 33.78 28.1266 32.5548 28.3617 31.3727C28.5969 30.1906 29.1772 29.1048 30.0295 28.2526C30.8817 27.4004 31.9675 26.82 33.1496 26.5849C34.3316 26.3497 35.5569 26.4704 36.6704 26.9316C37.7839 27.3929 38.7356 28.1739 39.4052 29.176C40.0748 30.1781 40.4321 31.3563 40.4321 32.5615C40.4303 34.1771 39.7877 35.726 38.6453 36.8684C37.5029 38.0108 35.954 38.6535 34.3384 38.6553ZM34.3384 27.4053C33.3186 27.4053 32.3217 27.7077 31.4737 28.2743C30.6258 28.8409 29.9649 29.6461 29.5746 30.5883C29.1844 31.5305 29.0823 32.5673 29.2812 33.5675C29.4802 34.5677 29.9713 35.4864 30.6924 36.2076C31.4135 36.9287 32.3322 37.4198 33.3325 37.6187C34.3327 37.8177 35.3694 37.7156 36.3116 37.3253C37.2538 36.935 38.0591 36.2741 38.6257 35.4262C39.1922 34.5783 39.4946 33.5814 39.4946 32.5615C39.4931 31.1945 38.9494 29.8839 37.9827 28.9172C37.0161 27.9506 35.7054 27.4068 34.3384 27.4053Z" fill="#603913"/>
<path d="M54.9605 4.43555L45.4272 13.4005L47.0747 6.92888C47.2228 6.34979 47.55 5.83225 48.0096 5.45002C48.4692 5.0678 49.0376 4.8404 49.634 4.80023L54.9605 4.43555Z" fill="#FFBD5A"/>
<path d="M52.3188 4.61719L49.634 4.80103C49.0376 4.84119 48.4691 5.06858 48.0095 5.45081C47.55 5.83303 47.2228 6.35058 47.0746 6.92967L45.4272 13.4013L47.747 11.2198C47.7656 9.78929 48.2106 8.39684 49.025 7.22063C49.8395 6.04442 50.9863 5.13795 52.3188 4.61719Z" fill="#FED18C"/>
<path d="M55.0542 12.6808L49.4028 16.2667L54.9608 4.43652L56.2813 9.59202C56.4291 10.1705 56.3899 10.7809 56.1695 11.3357C55.9491 11.8906 55.5586 12.3614 55.0542 12.6808Z" fill="#FFBD5A"/>
<path d="M56.2813 9.59105L55.6631 7.17773C55.3899 8.30469 54.8962 9.36636 54.2104 10.3014C53.3624 11.4892 52.2251 12.4407 50.9063 13.0657L49.4028 16.2658L55.0542 12.6798C55.5587 12.3605 55.9491 11.8897 56.1695 11.3348C56.39 10.7799 56.4291 10.1695 56.2813 9.59105Z" fill="#E4AD5D"/>
<path d="M33.8696 33.4986L37.8198 26.4443L39.3549 27.5506L33.8696 33.4986Z" fill="#F0F0FF"/>
<path d="M45.3231 23.4345L39.3547 27.5506L37.8198 26.4444L39.8735 19.5064C40.1107 18.7053 40.5566 17.9816 41.1653 17.4093L54.9606 4.43555L46.917 21.5548C46.5614 22.3114 46.0114 22.96 45.3231 23.4345Z" fill="#99DB6E"/>
<path d="M46.9171 21.5551L50.6862 13.5332C50.5858 13.6772 50.4871 13.8214 50.3833 13.9645C47.104 18.4832 42.8573 21.5289 38.9729 22.549L37.8198 26.4443L39.3547 27.5505L45.3232 23.4348C46.0115 22.9603 46.5615 22.3117 46.9171 21.5551Z" fill="#84BF6F"/>
<path d="M56.7354 9.47512L55.4149 4.31971C55.3878 4.21377 55.3245 4.12067 55.2359 4.05657C55.1473 3.99247 55.0391 3.96144 54.93 3.96885L54.9289 3.96857L49.6022 4.33326C48.9071 4.37927 48.2444 4.64401 47.7089 5.08959C47.1734 5.53516 46.7926 6.13872 46.621 6.81388L45.007 13.1542L40.8448 17.0683C40.1755 17.6974 39.6853 18.4931 39.4245 19.3739L37.3854 26.2622L33.461 33.2696C33.405 33.3698 33.3877 33.4871 33.4123 33.5992C33.437 33.7113 33.5019 33.8104 33.5948 33.8778C33.6877 33.9453 33.8021 33.9762 33.9163 33.9649C34.0306 33.9536 34.1367 33.9008 34.2145 33.8164L39.6646 27.9067L45.5896 23.8205C46.3459 23.2988 46.9504 22.586 47.3417 21.7547L49.7686 16.5893L55.3057 13.0762C55.8944 12.7044 56.3499 12.1555 56.6069 11.5084C56.8638 10.8613 56.9088 10.1494 56.7354 9.47512ZM46.2789 11.9569L47.5292 7.04502C47.6525 6.56129 47.9257 6.12896 48.3096 5.80986C48.6935 5.49077 49.1685 5.30127 49.6667 5.26846L53.6838 4.99359L46.2789 11.9569ZM37.9726 27.1324L38.6519 27.622L36.2238 30.255L37.9726 27.1324ZM46.4932 21.356C46.1726 22.0371 45.6773 22.6212 45.0577 23.0488L39.3611 26.9774L38.3641 26.2589L40.3235 19.6398C40.5373 18.9184 40.9388 18.2667 41.487 17.7513L53.491 6.46195L46.4932 21.356ZM54.8028 12.2847L50.5127 15.007L54.0649 7.44529L54.8304 5.8161L55.8273 9.70767C55.9512 10.1904 55.9188 10.6999 55.7347 11.163C55.5506 11.6261 55.2243 12.0188 54.8028 12.2847Z" fill="#603913"/>
<path d="M33.4009 52.249H3.40088C2.88311 52.249 2.46338 52.6688 2.46338 53.1865V55.999C2.46338 56.5168 2.88311 56.9365 3.40088 56.9365H33.4009C33.9186 56.9365 34.3384 56.5168 34.3384 55.999V53.1865C34.3384 52.6688 33.9186 52.249 33.4009 52.249Z" fill="#8B5E3C"/>
<path d="M32.9321 55.5303V56.9365H3.86963V55.5303C3.86963 55.033 4.06717 54.5561 4.4188 54.2044C4.77043 53.8528 5.24735 53.6553 5.74463 53.6553H31.0571C31.5544 53.6553 32.0313 53.8528 32.383 54.2044C32.7346 54.5561 32.9321 55.033 32.9321 55.5303Z" fill="#A97C50"/>
<path d="M25.9009 55.5303H10.9009C10.642 55.5303 10.4321 55.7401 10.4321 55.999C10.4321 56.2579 10.642 56.4678 10.9009 56.4678H25.9009C26.1598 56.4678 26.3696 56.2579 26.3696 55.999C26.3696 55.7401 26.1598 55.5303 25.9009 55.5303Z" fill="#C49A6C"/>
<path d="M10.4321 22.249H26.3696V25.999C26.3696 26.2477 26.2709 26.4861 26.095 26.6619C25.9192 26.8378 25.6808 26.9365 25.4321 26.9365H11.3696C11.121 26.9365 10.8825 26.8378 10.7067 26.6619C10.5309 26.4861 10.4321 26.2477 10.4321 25.999V22.249Z" fill="#A97C50"/>
<path d="M23.0884 24.5918H13.7134C13.4545 24.5918 13.2446 24.8017 13.2446 25.0605C13.2446 25.3194 13.4545 25.5293 13.7134 25.5293H23.0884C23.3473 25.5293 23.5571 25.3194 23.5571 25.0605C23.5571 24.8017 23.3473 24.5918 23.0884 24.5918Z" fill="#C49A6C"/>
<path d="M10.4321 22.249V25.999C10.4321 26.2477 10.5309 26.4861 10.7067 26.6619C10.8825 26.8378 11.121 26.9365 11.3696 26.9365H12.0259V25.5303C12.0259 25.033 12.2234 24.5561 12.5751 24.2044C12.9267 23.8528 13.4036 23.6553 13.9009 23.6553H22.9009C23.3982 23.6553 23.8751 23.8528 24.2267 24.2044C24.5783 24.5561 24.7759 25.033 24.7759 25.5303V26.9365H25.4321C25.6808 26.9365 25.9192 26.8378 26.095 26.6619C26.2709 26.4861 26.3696 26.2477 26.3696 25.999V22.249H10.4321ZM6.68213 47.5615H30.1196C30.3683 47.5615 30.6067 47.6603 30.7825 47.8361C30.9584 48.0119 31.0571 48.2504 31.0571 48.499V52.249H5.74463V48.499C5.74463 48.2504 5.8434 48.0119 6.01922 47.8361C6.19503 47.6603 6.43349 47.5615 6.68213 47.5615Z" fill="#8B5E3C"/>
<path d="M29.6509 47.5615V48.9678C29.6509 49.4651 29.4533 49.942 29.1017 50.2936C28.7501 50.6452 28.2732 50.8428 27.7759 50.8428H9.02588C8.5286 50.8428 8.05168 50.6452 7.70005 50.2936C7.34842 49.942 7.15088 49.4651 7.15088 48.9678V47.5615H29.6509Z" fill="#A97C50"/>
<path d="M23.0884 48.0303H13.7134C13.4545 48.0303 13.2446 48.2401 13.2446 48.499C13.2446 48.7579 13.4545 48.9678 13.7134 48.9678H23.0884C23.3473 48.9678 23.5571 48.7579 23.5571 48.499C23.5571 48.2401 23.3473 48.0303 23.0884 48.0303Z" fill="#C49A6C"/>
<path d="M23.0884 26.9365H13.7134C13.0872 33.8072 11.4369 40.5455 8.81719 46.9279L8.55713 47.5615H28.2446L27.9846 46.928C25.3649 40.5455 23.7145 33.8072 23.0884 26.9365Z" fill="#8B5E3C"/>
<path d="M12.821 42.7701C14.3549 37.8707 15.6232 31.7225 15.821 26.9365H20.9809C21.1788 31.7225 22.4471 37.8709 23.9809 42.7703C24.0705 43.0515 24.0925 43.3498 24.0452 43.641C23.9979 43.9323 23.8827 44.2083 23.7088 44.4467C23.5349 44.6851 23.3072 44.8791 23.0443 45.0131C22.7815 45.147 22.4907 45.2172 22.1956 45.2178H14.6065C14.3114 45.2172 14.0206 45.1471 13.7577 45.0131C13.4947 44.8792 13.2671 44.6851 13.0931 44.4467C12.9192 44.2083 12.804 43.9322 12.7567 43.6409C12.7094 43.3496 12.7314 43.0513 12.821 42.7701Z" fill="#A97C50"/>
<path d="M12.821 42.7701C14.3549 37.8707 15.6232 31.7225 15.821 26.9365H20.9809C21.1788 31.7225 22.4471 37.8709 23.9809 42.7703C24.0705 43.0515 24.0925 43.3498 24.0452 43.641C23.9979 43.9323 23.8827 44.2083 23.7088 44.4467C23.5349 44.6851 23.3072 44.8791 23.0443 45.0131C22.7815 45.147 22.4907 45.2172 22.1956 45.2178H14.6065C14.3114 45.2172 14.0206 45.1471 13.7577 45.0131C13.4947 44.8792 13.2671 44.6851 13.0931 44.4467C12.9192 44.2083 12.804 43.9322 12.7567 43.6409C12.7094 43.3496 12.7314 43.0513 12.821 42.7701Z" fill="#A97C50"/>
<path d="M21.6821 42.874H15.1196C14.8607 42.874 14.6509 43.0839 14.6509 43.3428C14.6509 43.6017 14.8607 43.8115 15.1196 43.8115H21.6821C21.941 43.8115 22.1509 43.6017 22.1509 43.3428C22.1509 43.0839 21.941 42.874 21.6821 42.874Z" fill="#C49A6C"/>
<path d="M24.9634 14.749V16.624C24.9634 16.8727 24.8646 17.1111 24.6888 17.2869C24.513 17.4628 24.2745 17.5615 24.0259 17.5615H21.2134C20.9647 17.5615 20.7263 17.4628 20.5505 17.2869C20.3747 17.1111 20.2759 16.8727 20.2759 16.624V14.749C20.2759 14.5004 20.1771 14.2619 20.0013 14.0861C19.8255 13.9103 19.587 13.8115 19.3384 13.8115H17.4634C17.2147 13.8115 16.9763 13.9103 16.8005 14.0861C16.6247 14.2619 16.5259 14.5004 16.5259 14.749V16.624C16.5259 16.8727 16.4271 17.1111 16.2513 17.2869C16.0755 17.4628 15.837 17.5615 15.5884 17.5615H12.7759C12.5272 17.5615 12.2888 17.4628 12.113 17.2869C11.9372 17.1111 11.8384 16.8727 11.8384 16.624V14.749C11.8384 14.5004 11.7396 14.2619 11.5638 14.0861C11.388 13.9103 11.1495 13.8115 10.9009 13.8115H9.02588C8.77724 13.8115 8.53878 13.9103 8.36297 14.0861C8.18715 14.2619 8.08838 14.5004 8.08838 14.749V21.3115C8.08838 21.5602 8.18715 21.7986 8.36297 21.9744C8.53878 22.1503 8.77724 22.249 9.02588 22.249H27.7759C28.0245 22.249 28.263 22.1503 28.4388 21.9744C28.6146 21.7986 28.7134 21.5602 28.7134 21.3115V14.749C28.7134 14.5004 28.6146 14.2619 28.4388 14.0861C28.263 13.9103 28.0245 13.8115 27.7759 13.8115H25.9009C25.6522 13.8115 25.4138 13.9103 25.238 14.0861C25.0622 14.2619 24.9634 14.5004 24.9634 14.749Z" fill="#A97C50"/>
<path d="M17.4634 14.749H19.3384C19.587 14.749 19.8255 14.8478 20.0013 15.0236C20.1771 15.1994 20.2759 15.4379 20.2759 15.6865V14.749C20.2759 14.5004 20.1771 14.2619 20.0013 14.0861C19.8255 13.9103 19.587 13.8115 19.3384 13.8115H17.4634C17.2147 13.8115 16.9763 13.9103 16.8005 14.0861C16.6247 14.2619 16.5259 14.5004 16.5259 14.749V15.6865C16.5259 15.4379 16.6247 15.1994 16.8005 15.0236C16.9763 14.8478 17.2147 14.749 17.4634 14.749ZM11.8384 17.5616C11.8384 17.8102 11.9372 18.0487 12.113 18.2245C12.2888 18.4003 12.5272 18.4991 12.7759 18.4991H15.5884C15.837 18.4991 16.0755 18.4003 16.2513 18.2245C16.4271 18.0487 16.5259 17.8102 16.5259 17.5616V16.6241C16.5259 16.8727 16.4271 17.1112 16.2513 17.287C16.0755 17.4628 15.837 17.5616 15.5884 17.5616H12.7759C12.5272 17.5616 12.2888 17.4628 12.113 17.287C11.9372 17.1112 11.8384 16.8727 11.8384 16.6241V17.5616ZM20.2759 17.5616C20.2759 17.8102 20.3747 18.0487 20.5505 18.2245C20.7263 18.4003 20.9647 18.4991 21.2134 18.4991H24.0259C24.2745 18.4991 24.513 18.4003 24.6888 18.2245C24.8646 18.0487 24.9634 17.8102 24.9634 17.5616V16.6241C24.9634 16.8727 24.8646 17.1112 24.6888 17.287C24.513 17.4628 24.2745 17.5616 24.0259 17.5616H21.2134C20.9647 17.5616 20.7263 17.4628 20.5505 17.287C20.3747 17.1112 20.2759 16.8727 20.2759 16.6241V17.5616Z" fill="#C49A6C"/>
<path d="M27.7759 13.8115H27.3071V18.9678C27.3071 19.4651 27.1096 19.942 26.758 20.2936C26.4063 20.6452 25.9294 20.8428 25.4321 20.8428H11.3696C10.8723 20.8428 10.3954 20.6452 10.0438 20.2936C9.69217 19.942 9.49463 19.4651 9.49463 18.9678V13.8115H9.02588C8.77724 13.8115 8.53878 13.9103 8.36297 14.0861C8.18715 14.2619 8.08838 14.5004 8.08838 14.749V21.3115C8.08838 21.5602 8.18715 21.7986 8.36297 21.9744C8.53878 22.1503 8.77724 22.249 9.02588 22.249H27.7759C28.0245 22.249 28.263 22.1503 28.4388 21.9744C28.6146 21.7986 28.7134 21.5602 28.7134 21.3115V14.749C28.7134 14.5004 28.6146 14.2619 28.4388 14.0861C28.263 13.9103 28.0245 13.8115 27.7759 13.8115Z" fill="#8B5E3C"/>
<path d="M33.4009 51.7803H31.5259V48.499C31.5255 48.1262 31.3772 47.7688 31.1135 47.5051C30.8499 47.2415 30.4925 47.0932 30.1196 47.0928H28.5587L28.4181 46.7499C25.8832 40.5699 24.264 34.053 23.6115 27.4053H25.4321C25.805 27.4049 26.1624 27.2566 26.426 26.9929C26.6897 26.7293 26.838 26.3719 26.8384 25.999V22.7178H27.7759C28.1487 22.7174 28.5062 22.5691 28.7698 22.3054C29.0334 22.0418 29.1817 21.6844 29.1821 21.3115V14.749C29.1817 14.3762 29.0334 14.0187 28.7698 13.7551C28.5062 13.4915 28.1487 13.3432 27.7759 13.3428H25.9009C25.528 13.3432 25.1706 13.4915 24.907 13.7551C24.6433 14.0187 24.495 14.3762 24.4946 14.749V16.624C24.4945 16.7483 24.4451 16.8675 24.3572 16.9554C24.2693 17.0432 24.1502 17.0927 24.0259 17.0928H21.2134C21.0891 17.0927 20.9699 17.0432 20.882 16.9554C20.7942 16.8675 20.7447 16.7483 20.7446 16.624V14.749C20.7442 14.3762 20.5959 14.0187 20.3323 13.7551C20.0687 13.4915 19.7112 13.3432 19.3384 13.3428H17.4634C17.0905 13.3432 16.7331 13.4915 16.4695 13.7551C16.2058 14.0187 16.0575 14.3762 16.0571 14.749V16.624C16.057 16.7483 16.0076 16.8675 15.9197 16.9554C15.8318 17.0432 15.7127 17.0927 15.5884 17.0928H12.7759C12.6516 17.0927 12.5324 17.0432 12.4445 16.9554C12.3567 16.8675 12.3072 16.7483 12.3071 16.624V14.749C12.3067 14.3762 12.1584 14.0187 11.8948 13.7551C11.6312 13.4915 11.2737 13.3432 10.9009 13.3428H9.02588C8.65304 13.3432 8.2956 13.4915 8.03196 13.7551C7.76833 14.0187 7.62004 14.3762 7.61963 14.749V21.3115C7.62004 21.6844 7.76833 22.0418 8.03196 22.3054C8.2956 22.5691 8.65304 22.7174 9.02588 22.7178H9.96338V25.999C9.96379 26.3719 10.1121 26.7293 10.3757 26.9929C10.6393 27.2566 10.9968 27.4049 11.3696 27.4053H13.1903C12.5378 34.053 10.9185 40.5698 8.38369 46.7498L8.24307 47.0928H6.68213C6.3093 47.0932 5.95186 47.2415 5.68823 47.5051C5.42459 47.7688 5.2763 48.1262 5.27588 48.499V51.7803H3.40088C3.02804 51.7807 2.6706 51.929 2.40696 52.1926C2.14333 52.4562 1.99504 52.8137 1.99463 53.1865V55.999C1.99504 56.3719 2.14333 56.7293 2.40696 56.9929C2.6706 57.2566 3.02804 57.4049 3.40088 57.4053H33.4009C33.7737 57.4049 34.1312 57.2566 34.3948 56.9929C34.6584 56.7293 34.8067 56.3719 34.8071 55.999V53.1865C34.8067 52.8137 34.6584 52.4562 34.3948 52.1926C34.1312 51.929 33.7737 51.7807 33.4009 51.7803ZM8.55713 21.3115V14.749C8.55725 14.6247 8.60668 14.5056 8.69456 14.4177C8.78244 14.3298 8.9016 14.2804 9.02588 14.2803H10.9009C11.0252 14.2804 11.1443 14.3298 11.2322 14.4177C11.3201 14.5056 11.3695 14.6247 11.3696 14.749V16.624C11.37 16.9969 11.5183 17.3543 11.782 17.6179C12.0456 17.8816 12.403 18.0299 12.7759 18.0303H15.5884C15.9612 18.0299 16.3187 17.8816 16.5823 17.6179C16.8459 17.3543 16.9942 16.9969 16.9946 16.624V14.749C16.9948 14.6247 17.0442 14.5056 17.1321 14.4177C17.2199 14.3298 17.3391 14.2804 17.4634 14.2803H19.3384C19.4627 14.2804 19.5818 14.3298 19.6697 14.4177C19.7576 14.5056 19.807 14.6247 19.8071 14.749V16.624C19.8075 16.9969 19.9558 17.3543 20.2195 17.6179C20.4831 17.8816 20.8405 18.0299 21.2134 18.0303H24.0259C24.3987 18.0299 24.7562 17.8816 25.0198 17.6179C25.2834 17.3543 25.4317 16.9969 25.4321 16.624V14.749C25.4323 14.6247 25.4817 14.5056 25.5696 14.4177C25.6574 14.3298 25.7766 14.2804 25.9009 14.2803H27.7759C27.9002 14.2804 28.0193 14.3298 28.1072 14.4177C28.1951 14.5056 28.2445 14.6247 28.2446 14.749V21.3115C28.2445 21.4358 28.1951 21.555 28.1072 21.6428C28.0193 21.7307 27.9002 21.7801 27.7759 21.7803H9.02588C8.90155 21.7801 8.78235 21.7307 8.69446 21.6427C8.60657 21.5548 8.55718 21.4359 8.55713 21.3115ZM10.9009 25.999V22.7178H25.9009V25.999C25.9008 26.1233 25.8513 26.2425 25.7635 26.3304C25.6756 26.4182 25.5564 26.4677 25.4321 26.4678H11.3696C11.2453 26.4677 11.1262 26.4182 11.0383 26.3304C10.9504 26.2425 10.901 26.1233 10.9009 25.999ZM14.1399 27.4053H22.6618C23.3192 34.1711 24.9647 40.8041 27.5457 47.0928H9.25613C11.8371 40.8041 13.4826 34.1711 14.1399 27.4053ZM6.21338 48.499C6.21349 48.3747 6.26291 48.2556 6.3508 48.1677C6.43868 48.0798 6.55784 48.0304 6.68213 48.0303H30.1196C30.2439 48.0304 30.3631 48.0798 30.451 48.1677C30.5388 48.2556 30.5883 48.3747 30.5884 48.499V51.7803H6.21338V48.499ZM33.8696 55.999C33.8695 56.1233 33.8201 56.2425 33.7322 56.3304C33.6443 56.4182 33.5252 56.4677 33.4009 56.4678H3.40088C3.27659 56.4677 3.15743 56.4182 3.06955 56.3304C2.98166 56.2425 2.93224 56.1233 2.93213 55.999V53.1865C2.93225 53.0622 2.98168 52.9431 3.06956 52.8552C3.15744 52.7673 3.2766 52.7179 3.40088 52.7178H33.4009C33.5252 52.7179 33.6443 52.7673 33.7322 52.8552C33.8201 52.9431 33.8695 53.0622 33.8696 53.1865V55.999Z" fill="#603913"/>
</svg>
