<svg width="37" height="37" viewBox="0 0 37 37" fill="none" xmlns="http://www.w3.org/2000/svg">
<path d="M34.6875 2.3125V34.6875H2.3125V2.3125H34.6875ZM35.8438 1.15625H1.15625V35.8438H35.8438V1.15625Z" fill="#6A44FE"/>
<path d="M34.6875 2.3125V34.6875H2.3125V2.3125H34.6875ZM35.8438 1.15625H1.15625V35.8438H35.8438V1.15625Z" fill="#6A44FE"/>
<path d="M20.9758 10.5911C19.2079 11.234 18.0909 12.8932 18.2181 14.7097L18.2609 15.4104L17.5533 15.3248C14.9795 14.9964 12.7306 13.8807 10.8204 12.0075L9.88618 11.0768L9.64568 11.7636C9.13693 13.2933 9.46183 14.9097 10.5221 15.9966C11.0875 16.5979 10.9603 16.6834 9.98446 16.325C9.64452 16.2105 9.34852 16.125 9.31961 16.1677C9.22133 16.2683 9.56011 17.5691 9.82836 18.0836C10.1961 18.7994 10.9453 19.4989 11.7662 19.914L12.46 20.2424L11.6402 20.2562C10.8482 20.2562 10.8204 20.2701 10.9048 20.5719C11.1881 21.5015 12.3051 22.4878 13.5492 22.9179L14.4256 23.2174L13.6625 23.6753C12.5081 24.3409 11.2045 24.7048 9.8723 24.7332C9.23521 24.7471 8.71143 24.8049 8.71143 24.8477C8.71143 24.9899 10.4377 25.7912 11.4413 26.1057C14.4534 27.0353 18.0331 26.6341 20.7202 25.0477C22.6292 23.9181 24.5382 21.6726 25.4308 19.4989C25.9118 18.3415 26.3928 16.2244 26.3928 15.2104C26.3928 14.5524 26.4356 14.4669 27.2276 13.6806C27.6947 13.2228 28.133 12.7233 28.2174 12.5799C28.3596 12.3082 28.3446 12.3082 27.6231 12.551C26.4206 12.9799 26.2506 12.9233 26.8449 12.2793C27.2831 11.8214 27.8069 10.9924 27.8069 10.7495C27.8069 10.7068 27.5953 10.7784 27.3536 10.9068C27.0993 11.0502 26.5339 11.2641 26.1095 11.3924L25.3464 11.6364L24.6526 11.1635C24.2711 10.9068 23.7334 10.62 23.4501 10.5345C22.7298 10.3344 21.6256 10.3622 20.9758 10.5911Z" fill="#6A44FE"/>
</svg>
